<svg width="20" height="22" viewBox="0 0 20 22" fill="none" xmlns="http://www.w3.org/2000/svg">
<rect x="0.500092" y="3.86517" width="18.9999" height="16.7777" rx="0.5" stroke="white"/>
<line x1="13.7327" y1="1.48422" x2="13.7327" y2="5.2461" stroke="white" stroke-linecap="round"/>
<line x1="6.21426" y1="1.48422" x2="6.21426" y2="5.2461" stroke="white" stroke-linecap="round"/>
<line x1="19.0475" y1="9.00296" x2="-1.33514e-05" y2="9.00296" stroke="white"/>
<path fill-rule="evenodd" clip-rule="evenodd" d="M19 8.76196H1V20.9841H19V8.76196ZM3.8571 11.6191C3.30481 11.6191 2.8571 12.0668 2.8571 12.6191V13.4762C2.8571 14.0285 3.30481 14.4762 3.8571 14.4762H4.71423C5.26651 14.4762 5.71423 14.0285 5.71423 13.4762V12.6191C5.71423 12.0668 5.26651 11.6191 4.71423 11.6191H3.8571ZM6.66674 12.6191C6.66674 12.0668 7.11445 11.6191 7.66674 11.6191H8.52387C9.07615 11.6191 9.52387 12.0668 9.52387 12.6191V13.4762C9.52387 14.0285 9.07615 14.4762 8.52387 14.4762H7.66674C7.11445 14.4762 6.66674 14.0285 6.66674 13.4762V12.6191ZM11.4763 11.6191C10.924 11.6191 10.4763 12.0668 10.4763 12.6191V13.4762C10.4763 14.0285 10.924 14.4762 11.4763 14.4762H12.3334C12.8857 14.4762 13.3334 14.0285 13.3334 13.4762V12.6191C13.3334 12.0668 12.8857 11.6191 12.3334 11.6191H11.4763ZM2.85721 16.4286C2.85721 15.8763 3.30493 15.4286 3.85721 15.4286H4.71434C5.26663 15.4286 5.71434 15.8763 5.71434 16.4286V17.2857C5.71434 17.838 5.26663 18.2857 4.71434 18.2857H3.85721C3.30493 18.2857 2.85721 17.838 2.85721 17.2857V16.4286ZM7.66674 15.4286C7.11445 15.4286 6.66674 15.8763 6.66674 16.4286V17.2857C6.66674 17.838 7.11445 18.2857 7.66674 18.2857H8.52387C9.07615 18.2857 9.52387 17.838 9.52387 17.2857V16.4286C9.52387 15.8763 9.07615 15.4286 8.52387 15.4286H7.66674ZM10.4763 16.4286C10.4763 15.8763 10.924 15.4286 11.4763 15.4286H12.3334C12.8857 15.4286 13.3334 15.8763 13.3334 16.4286V17.2857C13.3334 17.838 12.8857 18.2857 12.3334 18.2857H11.4763C10.924 18.2857 10.4763 17.838 10.4763 17.2857V16.4286ZM15.2859 11.6191C14.7336 11.6191 14.2859 12.0668 14.2859 12.6191V13.4762C14.2859 14.0285 14.7336 14.4762 15.2859 14.4762H16.143C16.6953 14.4762 17.143 14.0285 17.143 13.4762V12.6191C17.143 12.0668 16.6953 11.6191 16.143 11.6191H15.2859Z" fill="white"/>
</svg>
