<svg width="16" height="16" viewBox="0 0 16 16" fill="none" xmlns="http://www.w3.org/2000/svg">
<path d="M0 2C0 0.895433 0.895431 0 2 0H5.27273C6.3773 0 7.27273 0.895431 7.27273 2V5.27273C7.27273 6.3773 6.3773 7.27273 5.27273 7.27273H2C0.895433 7.27273 0 6.3773 0 5.27273V2Z" fill="black"/>
<path d="M0 10.7273C0 9.62271 0.895431 8.72727 2 8.72727H5.27273C6.3773 8.72727 7.27273 9.6227 7.27273 10.7273V14C7.27273 15.1046 6.3773 16 5.27273 16H2C0.895433 16 0 15.1046 0 14V10.7273Z" fill="black"/>
<path d="M8.72727 2C8.72727 0.895433 9.6227 0 10.7273 0H14C15.1046 0 16 0.895431 16 2V5.27273C16 6.3773 15.1046 7.27273 14 7.27273H10.7273C9.62271 7.27273 8.72727 6.3773 8.72727 5.27273V2Z" fill="black"/>
<path d="M8.72727 10.7273C8.72727 9.62271 9.6227 8.72727 10.7273 8.72727H14C15.1046 8.72727 16 9.6227 16 10.7273V14C16 15.1046 15.1046 16 14 16H10.7273C9.62271 16 8.72727 15.1046 8.72727 14V10.7273Z" fill="black"/>
</svg>