<svg width="110" height="44" viewBox="0 0 110 44" fill="none" xmlns="http://www.w3.org/2000/svg">
    <rect width="110" height="44" rx="5" fill="white"/>
    <path d="M45.31 17.68V21.69H50.37V23.76H45.31V27.85H51.73V30H42.61V15.54H51.73V17.68H45.31ZM68.9539 22.77C68.9539 23.83 68.7772 24.8033 68.4239 25.69C68.0706 26.5767 67.5739 27.34 66.9339 27.98C66.2939 28.62 65.5239 29.1167 64.6239 29.47C63.7239 29.8233 62.7239 30 61.6239 30H56.1139V15.54H61.6239C62.7239 15.54 63.7239 15.72 64.6239 16.08C65.5239 16.4333 66.2939 16.93 66.9339 17.57C67.5739 18.2033 68.0706 18.9633 68.4239 19.85C68.7772 20.7367 68.9539 21.71 68.9539 22.77ZM66.1939 22.77C66.1939 21.9767 66.0872 21.2667 65.8739 20.64C65.6672 20.0067 65.3639 19.4733 64.9639 19.04C64.5706 18.6 64.0906 18.2633 63.5239 18.03C62.9639 17.7967 62.3306 17.68 61.6239 17.68H58.8139V27.86H61.6239C62.3306 27.86 62.9639 27.7433 63.5239 27.51C64.0906 27.2767 64.5706 26.9433 64.9639 26.51C65.3639 26.07 65.6672 25.5367 65.8739 24.91C66.0872 24.2767 66.1939 23.5633 66.1939 22.77ZM76.0288 30H73.3288V15.54H76.0288V30ZM91.3663 17.75H87.0063V30H84.3163V17.75H79.9563V15.54H91.3663V17.75Z" fill="#99D85D"/>
    <path d="M23.8 15.1218L12.8 26.4567L12 33L18.25 31.6089L28.9276 20.5316M23.8 15.1218L27.8 11L33 16.3068L28.9276 20.5316M23.8 15.1218L28.9276 20.5316" stroke="#99D85D" stroke-width="2"/>
</svg>
