<svg width="256" height="44" viewBox="0 0 256 44" fill="none" xmlns="http://www.w3.org/2000/svg">
<rect x="1" y="1" width="254" height="42" rx="4" fill="white" stroke="#FF7F00" stroke-width="2"/>
<path d="M59.8 15.54V30H57.1V23.68H50.31V30H47.61V15.54H50.31V21.76H57.1V15.54H59.8ZM67.7202 30H65.0202V15.54H67.7202V30ZM85.7977 22.77C85.7977 23.83 85.621 24.8033 85.2677 25.69C84.9143 26.5767 84.4177 27.34 83.7777 27.98C83.1377 28.62 82.3677 29.1167 81.4677 29.47C80.5677 29.8233 79.5677 30 78.4677 30H72.9577V15.54H78.4677C79.5677 15.54 80.5677 15.72 81.4677 16.08C82.3677 16.4333 83.1377 16.93 83.7777 17.57C84.4177 18.2033 84.9143 18.9633 85.2677 19.85C85.621 20.7367 85.7977 21.71 85.7977 22.77ZM83.0377 22.77C83.0377 21.9767 82.931 21.2667 82.7177 20.64C82.511 20.0067 82.2077 19.4733 81.8077 19.04C81.4143 18.6 80.9343 18.2633 80.3677 18.03C79.8077 17.7967 79.1743 17.68 78.4677 17.68H75.6577V27.86H78.4677C79.1743 27.86 79.8077 27.7433 80.3677 27.51C80.9343 27.2767 81.4143 26.9433 81.8077 26.51C82.2077 26.07 82.511 25.5367 82.7177 24.91C82.931 24.2767 83.0377 23.5633 83.0377 22.77ZM92.8725 17.68V21.69H97.9325V23.76H92.8725V27.85H99.2925V30H90.1725V15.54H99.2925V17.68H92.8725ZM124.33 22.77C124.33 23.83 124.153 24.8133 123.8 25.72C123.453 26.62 122.96 27.4 122.32 28.06C121.68 28.72 120.91 29.2367 120.01 29.61C119.11 29.9767 118.11 30.16 117.01 30.16C115.916 30.16 114.92 29.9767 114.02 29.61C113.12 29.2367 112.346 28.72 111.7 28.06C111.06 27.4 110.563 26.62 110.21 25.72C109.856 24.8133 109.68 23.83 109.68 22.77C109.68 21.71 109.856 20.73 110.21 19.83C110.563 18.9233 111.06 18.14 111.7 17.48C112.346 16.82 113.12 16.3067 114.02 15.94C114.92 15.5667 115.916 15.38 117.01 15.38C117.743 15.38 118.433 15.4667 119.08 15.64C119.726 15.8067 120.32 16.0467 120.86 16.36C121.4 16.6667 121.883 17.0433 122.31 17.49C122.743 17.93 123.11 18.4233 123.41 18.97C123.71 19.5167 123.936 20.11 124.09 20.75C124.25 21.39 124.33 22.0633 124.33 22.77ZM121.58 22.77C121.58 21.9767 121.473 21.2667 121.26 20.64C121.046 20.0067 120.743 19.47 120.35 19.03C119.956 18.59 119.476 18.2533 118.91 18.02C118.35 17.7867 117.716 17.67 117.01 17.67C116.303 17.67 115.666 17.7867 115.1 18.02C114.54 18.2533 114.06 18.59 113.66 19.03C113.266 19.47 112.963 20.0067 112.75 20.64C112.536 21.2667 112.43 21.9767 112.43 22.77C112.43 23.5633 112.536 24.2767 112.75 24.91C112.963 25.5367 113.266 26.07 113.66 26.51C114.06 26.9433 114.54 27.2767 115.1 27.51C115.666 27.7433 116.303 27.86 117.01 27.86C117.716 27.86 118.35 27.7433 118.91 27.51C119.476 27.2767 119.956 26.9433 120.35 26.51C120.743 26.07 121.046 25.5367 121.26 24.91C121.473 24.2767 121.58 23.5633 121.58 22.77ZM140.882 15.54V30H139.502C139.289 30 139.109 29.9667 138.962 29.9C138.822 29.8267 138.685 29.7067 138.552 29.54L131.002 19.9C131.042 20.34 131.062 20.7467 131.062 21.12V30H128.692V15.54H130.102C130.215 15.54 130.312 15.5467 130.392 15.56C130.479 15.5667 130.552 15.5867 130.612 15.62C130.679 15.6467 130.742 15.69 130.802 15.75C130.862 15.8033 130.929 15.8767 131.002 15.97L138.582 25.65C138.562 25.4167 138.545 25.1867 138.532 24.96C138.519 24.7333 138.512 24.5233 138.512 24.33V15.54H140.882ZM157.665 22.81C158.159 22.81 158.589 22.75 158.955 22.63C159.322 22.5033 159.625 22.3267 159.865 22.1C160.112 21.8667 160.295 21.5867 160.415 21.26C160.535 20.9267 160.595 20.5567 160.595 20.15C160.595 19.7633 160.535 19.4133 160.415 19.1C160.295 18.7867 160.115 18.52 159.875 18.3C159.635 18.08 159.332 17.9133 158.965 17.8C158.599 17.68 158.165 17.62 157.665 17.62H155.655V22.81H157.665ZM157.665 15.54C158.632 15.54 159.469 15.6533 160.175 15.88C160.882 16.1067 161.465 16.4233 161.925 16.83C162.385 17.2367 162.725 17.7233 162.945 18.29C163.172 18.8567 163.285 19.4767 163.285 20.15C163.285 20.85 163.169 21.4933 162.935 22.08C162.702 22.66 162.352 23.16 161.885 23.58C161.419 24 160.832 24.3267 160.125 24.56C159.425 24.7933 158.605 24.91 157.665 24.91H155.655V30H152.965V15.54H157.665ZM171.718 22.42C172.225 22.42 172.665 22.3567 173.038 22.23C173.418 22.1033 173.728 21.93 173.968 21.71C174.215 21.4833 174.398 21.2167 174.518 20.91C174.638 20.6033 174.698 20.2667 174.698 19.9C174.698 19.1667 174.455 18.6033 173.968 18.21C173.488 17.8167 172.752 17.62 171.758 17.62H170.038V22.42H171.718ZM178.638 30H176.208C175.748 30 175.415 29.82 175.208 29.46L172.168 24.83C172.055 24.6567 171.928 24.5333 171.788 24.46C171.655 24.3867 171.455 24.35 171.188 24.35H170.038V30H167.348V15.54H171.758C172.738 15.54 173.578 15.6433 174.278 15.85C174.985 16.05 175.562 16.3333 176.008 16.7C176.462 17.0667 176.795 17.5067 177.008 18.02C177.222 18.5267 177.328 19.0867 177.328 19.7C177.328 20.1867 177.255 20.6467 177.108 21.08C176.968 21.5133 176.762 21.9067 176.488 22.26C176.222 22.6133 175.888 22.9233 175.488 23.19C175.095 23.4567 174.645 23.6667 174.138 23.82C174.312 23.92 174.472 24.04 174.618 24.18C174.765 24.3133 174.898 24.4733 175.018 24.66L178.638 30ZM195.795 22.77C195.795 23.83 195.618 24.8133 195.265 25.72C194.918 26.62 194.425 27.4 193.785 28.06C193.145 28.72 192.375 29.2367 191.475 29.61C190.575 29.9767 189.575 30.16 188.475 30.16C187.381 30.16 186.385 29.9767 185.485 29.61C184.585 29.2367 183.811 28.72 183.165 28.06C182.525 27.4 182.028 26.62 181.675 25.72C181.321 24.8133 181.145 23.83 181.145 22.77C181.145 21.71 181.321 20.73 181.675 19.83C182.028 18.9233 182.525 18.14 183.165 17.48C183.811 16.82 184.585 16.3067 185.485 15.94C186.385 15.5667 187.381 15.38 188.475 15.38C189.208 15.38 189.898 15.4667 190.545 15.64C191.191 15.8067 191.785 16.0467 192.325 16.36C192.865 16.6667 193.348 17.0433 193.775 17.49C194.208 17.93 194.575 18.4233 194.875 18.97C195.175 19.5167 195.401 20.11 195.555 20.75C195.715 21.39 195.795 22.0633 195.795 22.77ZM193.045 22.77C193.045 21.9767 192.938 21.2667 192.725 20.64C192.511 20.0067 192.208 19.47 191.815 19.03C191.421 18.59 190.941 18.2533 190.375 18.02C189.815 17.7867 189.181 17.67 188.475 17.67C187.768 17.67 187.131 17.7867 186.565 18.02C186.005 18.2533 185.525 18.59 185.125 19.03C184.731 19.47 184.428 20.0067 184.215 20.64C184.001 21.2667 183.895 21.9767 183.895 22.77C183.895 23.5633 184.001 24.2767 184.215 24.91C184.428 25.5367 184.731 26.07 185.125 26.51C185.525 26.9433 186.005 27.2767 186.565 27.51C187.131 27.7433 187.768 27.86 188.475 27.86C189.181 27.86 189.815 27.7433 190.375 27.51C190.941 27.2767 191.421 26.9433 191.815 26.51C192.208 26.07 192.511 25.5367 192.725 24.91C192.938 24.2767 193.045 23.5633 193.045 22.77ZM202.857 17.68V21.96H208.277V24.11H202.857V30H200.157V15.54H209.277V17.68H202.857ZM216.185 30H213.485V15.54H216.185V30ZM229.893 27.78V30H221.423V15.54H224.113V27.78H229.893ZM236.513 17.68V21.69H241.573V23.76H236.513V27.85H242.933V30H233.813V15.54H242.933V17.68H236.513Z" fill="#FF7F00"/>
<g clip-path="url(#clip0)">
<path d="M39.378 33.3108L9.78171 10.1737C9.70054 10.1087 9.60735 10.0604 9.50748 10.0314C9.40761 10.0024 9.30301 9.99337 9.19965 10.0048C9.09629 10.0163 8.9962 10.0479 8.90509 10.0981C8.81398 10.1482 8.73363 10.2158 8.66863 10.297L8.17371 10.9151C8.10857 10.9963 8.06007 11.0896 8.031 11.1895C8.00194 11.2895 7.99287 11.3942 8.00431 11.4977C8.01576 11.6012 8.0475 11.7014 8.09771 11.7926C8.14792 11.8838 8.21563 11.9642 8.29695 12.0292L37.8933 35.1663C37.9745 35.2313 38.0676 35.2796 38.1675 35.3086C38.2674 35.3376 38.372 35.3466 38.4753 35.3352C38.5787 35.3237 38.6788 35.2921 38.7699 35.2419C38.861 35.1918 38.9414 35.1242 39.0064 35.043L39.5013 34.4249C39.5664 34.3437 39.6149 34.2504 39.644 34.1505C39.6731 34.0505 39.6821 33.9458 39.6707 33.8423C39.6592 33.7388 39.6275 33.6386 39.5773 33.5474C39.5271 33.4562 39.4594 33.3758 39.378 33.3108V33.3108ZM22.6888 17.2491L29.3598 22.4646C29.25 19.498 26.8308 17.1269 23.8375 17.1269C23.4514 17.1276 23.0664 17.1686 22.6888 17.2491ZM24.9862 28.0914L18.3152 22.8759C18.4255 25.842 20.8447 28.2131 23.8375 28.2131C24.2236 28.2123 24.6085 28.1715 24.9862 28.0914V28.0914ZM23.8375 15.5431C28.7199 15.5431 33.196 18.2652 35.6132 22.67C35.0206 23.7541 34.2885 24.7557 33.4355 25.6494L35.3033 27.1094C36.3433 25.997 37.2243 24.746 37.9215 23.3921C38.0347 23.1681 38.0937 22.9207 38.0937 22.6698C38.0937 22.4188 38.0347 22.1714 37.9215 21.9474C35.2351 16.7106 29.9216 13.1675 23.8375 13.1675C22.0211 13.1675 20.2884 13.5139 18.6591 14.0984L20.9561 15.8945C21.8934 15.6817 22.8536 15.5431 23.8375 15.5431ZM23.8375 29.7969C18.9551 29.7969 14.4795 27.0748 12.0618 22.67C12.6551 21.5859 13.3881 20.5844 14.242 19.6911L12.3741 18.231C11.3344 19.3434 10.4535 20.5942 9.75647 21.9479C9.64326 22.1719 9.58427 22.4193 9.58427 22.6702C9.58427 22.9212 9.64326 23.1686 9.75647 23.3926C12.4404 28.6294 17.7539 32.1725 23.8375 32.1725C25.6539 32.1725 27.3866 31.8236 29.0159 31.2416L26.7189 29.446C25.7815 29.6583 24.8219 29.7969 23.8375 29.7969Z" fill="#FF7F00"/>
</g>
<defs>
<clipPath id="clip0">
<rect width="31.675" height="25.34" fill="white" transform="translate(8 10)"/>
</clipPath>
</defs>
</svg>
