<svg width="20" height="15" viewBox="0 0 20 15" fill="none" xmlns="http://www.w3.org/2000/svg">
<path fill-rule="evenodd" clip-rule="evenodd" d="M19.5726 0.764142L10.0091 9.32089L0.673107 0.503523C1.02617 0.190244 1.49087 0 2 0H18C18.6381 0 19.2064 0.298814 19.5726 0.764142ZM12.1712 8.72827L10.3334 10.3726C10.1397 10.5459 9.84562 10.5419 9.65669 10.3635L7.8688 8.67494L3.125 15H16.875L12.1712 8.72827ZM12.9192 8.05898L18.1222 14.9963C19.1699 14.9332 20 14.0635 20 13V2C20 1.91143 19.9942 1.82421 19.9831 1.73869L12.9192 8.05898ZM0.109219 1.34645L7.13709 7.98388L1.87776 14.9963C0.830114 14.9332 0 14.0635 0 13V2C0 1.77114 0.0384411 1.55125 0.109219 1.34645Z" fill="black"/>
</svg>
