<svg width="16" height="12" viewBox="0 0 16 12" fill="none" xmlns="http://www.w3.org/2000/svg">
<path fill-rule="evenodd" clip-rule="evenodd" d="M15.4708 0.644695L8.00915 7.32089L0.734963 0.450831C1.07963 0.169041 1.52008 0 2 0H14C14.5817 0 15.1053 0.248304 15.4708 0.644695ZM9.64758 7.19677L8.3334 8.37262C8.13973 8.5459 7.84562 8.54194 7.65669 8.36351L6.38099 7.15868L2.75 12H13.25L9.64758 7.19677ZM10.3956 6.52748L14.4601 11.9468C15.3429 11.739 16 10.9462 16 10V2C16 1.84778 15.983 1.69954 15.9508 1.55707L10.3956 6.52748ZM0.139717 1.26414L5.64928 6.46762L1.53989 11.9468C0.657107 11.739 0 10.9462 0 10V2C0 1.74016 0.0495501 1.4919 0.139717 1.26414Z" fill="white"/>
</svg>
