<svg width="20" height="20" viewBox="0 0 20 20" fill="none" xmlns="http://www.w3.org/2000/svg">
<path d="M16.8204 12.5118C16.0976 11.7982 15.1952 11.7982 14.477 12.5118C13.9291 13.055 13.3813 13.5983 12.8426 14.1508C12.6953 14.3027 12.571 14.3349 12.3914 14.2336C12.0369 14.0403 11.6594 13.8837 11.3187 13.672C9.73034 12.6729 8.3998 11.3884 7.22119 9.94277C6.63649 9.22456 6.11625 8.4557 5.75254 7.59016C5.67887 7.41521 5.69269 7.30012 5.83541 7.15739C6.38328 6.62794 6.91733 6.08468 7.45599 5.54141C8.20643 4.78637 8.20643 3.90241 7.45139 3.14276C7.02322 2.70999 6.59506 2.28643 6.16689 1.85366C5.72491 1.41168 5.28754 0.965101 4.84096 0.527727C4.11814 -0.176675 3.21577 -0.176675 2.49755 0.532331C1.94508 1.0756 1.41563 1.63267 0.85395 2.16673C0.333705 2.65935 0.071281 3.26246 0.0160338 3.96687C-0.071441 5.11325 0.209399 6.19517 0.605337 7.24947C1.41563 9.43174 2.64948 11.37 4.14576 13.1471C6.16689 15.5504 8.57935 17.4518 11.4016 18.8238C12.6723 19.4407 13.989 19.9149 15.4208 19.9932C16.406 20.0484 17.2624 19.7998 17.9484 19.0309C18.418 18.5061 18.9474 18.0273 19.4446 17.5255C20.1813 16.7796 20.1859 15.8772 19.4538 15.1406C18.5791 14.2613 17.6997 13.3865 16.8204 12.5118Z" fill="black"/>
</svg>
