<svg width="15" height="18" viewBox="0 0 15 18" fill="none" xmlns="http://www.w3.org/2000/svg">
<path fill-rule="evenodd" clip-rule="evenodd" d="M15 1C15 0.447715 14.5523 0 14 0H1C0.447715 0 0 0.447716 0 1V17C0 17.5523 0.447715 18 1 18H5.875C6.42728 18 6.875 17.5523 6.875 17V14.8286C6.875 14.2763 7.32272 13.8286 7.875 13.8286H10.9167C11.4689 13.8286 11.9167 14.2763 11.9167 14.8286V17C11.9167 17.5523 12.3644 18 12.9167 18H14C14.5523 18 15 17.5523 15 17V1ZM4.35417 2.88571C4.35417 2.33342 3.90645 1.88571 3.35416 1.88571H3.0625C2.51022 1.88571 2.0625 2.33342 2.0625 2.88571V3.39999C2.0625 3.95228 2.51022 4.39999 3.0625 4.39999H3.35416C3.90645 4.39999 4.35417 3.95228 4.35417 3.39999V2.88571ZM6.18726 2.88571C6.18726 2.33342 6.63497 1.88571 7.18726 1.88571H7.47892C8.03121 1.88571 8.47892 2.33342 8.47892 2.88571V3.39999C8.47892 3.95228 8.03121 4.39999 7.47892 4.39999H7.18726C6.63497 4.39999 6.18726 3.95228 6.18726 3.39999V2.88571ZM12.6042 2.88571C12.6042 2.33342 12.1564 1.88571 11.6042 1.88571H11.3125C10.7602 1.88571 10.3125 2.33342 10.3125 2.88571V3.39999C10.3125 3.95228 10.7602 4.39999 11.3125 4.39999H11.6042C12.1564 4.39999 12.6042 3.95228 12.6042 3.39999V2.88571ZM2.0625 6.65714C2.0625 6.10485 2.51022 5.65714 3.0625 5.65714H3.35416C3.90645 5.65714 4.35417 6.10485 4.35417 6.65714V7.17142C4.35417 7.7237 3.90645 8.17142 3.35416 8.17142H3.0625C2.51022 8.17142 2.0625 7.7237 2.0625 7.17142V6.65714ZM8.47892 6.65714C8.47892 6.10485 8.03121 5.65714 7.47892 5.65714H7.18726C6.63497 5.65714 6.18726 6.10485 6.18726 6.65714V7.17142C6.18726 7.7237 6.63497 8.17142 7.18726 8.17142H7.47892C8.03121 8.17142 8.47892 7.7237 8.47892 7.17142V6.65714ZM10.3125 6.65714C10.3125 6.10485 10.7602 5.65714 11.3125 5.65714H11.6042C12.1564 5.65714 12.6042 6.10485 12.6042 6.65714V7.17142C12.6042 7.7237 12.1564 8.17142 11.6042 8.17142H11.3125C10.7602 8.17142 10.3125 7.7237 10.3125 7.17142V6.65714ZM4.35417 10.4286C4.35417 9.87629 3.90645 9.42858 3.35416 9.42858H3.0625C2.51022 9.42858 2.0625 9.87629 2.0625 10.4286V10.9429C2.0625 11.4951 2.51022 11.9429 3.0625 11.9429H3.35416C3.90645 11.9429 4.35417 11.4951 4.35417 10.9429V10.4286ZM6.18726 10.4286C6.18726 9.87629 6.63497 9.42858 7.18726 9.42858H7.47892C8.03121 9.42858 8.47892 9.87629 8.47892 10.4286V10.9429C8.47892 11.4951 8.03121 11.9429 7.47892 11.9429H7.18726C6.63497 11.9429 6.18726 11.4951 6.18726 10.9429V10.4286ZM12.6042 10.4286C12.6042 9.87629 12.1564 9.42858 11.6042 9.42858H11.3125C10.7602 9.42858 10.3125 9.87629 10.3125 10.4286V10.9429C10.3125 11.4951 10.7602 11.9429 11.3125 11.9429H11.6042C12.1564 11.9429 12.6042 11.4951 12.6042 10.9429V10.4286Z" fill="black"/>
</svg>
