<svg id="Layer_2" data-name="Layer 2" xmlns="http://www.w3.org/2000/svg" viewBox="0 0 642.95 443.53"><defs><style>.cls-1{fill:#c4c4c4;}.cls-2{fill:#a4a4a4;}.cls-3{fill:#888;}.cls-4{fill:#49aee9;}.cls-5{fill:#218ae0;}</style></defs><title>Practitioner-Option</title><ellipse class="cls-1" cx="107.39" cy="209.48" rx="107.39" ry="107.72"/><path class="cls-1" d="M276.36,581.08s4-133.51,71.08-133.51,71.08,133.51,71.08,133.51Z" transform="translate(-240.05 -139.47)"/><ellipse class="cls-2" cx="197.72" cy="263.25" rx="82.52" ry="82.77"/><path class="cls-2" d="M355.25,581.08S359.9,478.5,437.77,478.5s82.51,102.58,82.51,102.58Z" transform="translate(-240.05 -139.47)"/><ellipse class="cls-1" cx="535.56" cy="209.48" rx="107.39" ry="107.72"/><path class="cls-1" d="M668.22,581.08s6-133.51,107.39-133.51S883,581.08,883,581.08Z" transform="translate(-240.05 -139.47)"/><path class="cls-2" d="M727.13,453.53a217.59,217.59,0,0,0,39.93,3.82,162.89,162.89,0,0,0,39.31-4.91s5.76,1.92,17.28,7.68c0,0-34.89,9.6-56.59,9.6s-63.37-9.06-63.37-9.06S720.75,454.92,727.13,453.53Z" transform="translate(-240.05 -139.47)"/><ellipse class="cls-2" cx="453.08" cy="263.25" rx="82.52" ry="82.77"/><path class="cls-2" d="M593.34,581.08S599,478.5,693.13,478.5s99.8,102.58,99.8,102.58Z" transform="translate(-240.05 -139.47)"/><path class="cls-2" d="M371.05,454.06s-8.21,2.22-23.57,2.22-23.65-2.22-23.65-2.22-3.4,2.45-7.15,5.21c0,0,23.12,2.77,30.8,2.77s29.81-3,29.81-3A75,75,0,0,0,371.05,454.06Z" transform="translate(-240.05 -139.47)"/><path class="cls-3" d="M461.29,482.08s-4.37,3-23.57,3-23.48-3-23.48-3-10.24,3.35-11.62,5.09c0,0,14,5.59,35.1,5.59s35.64-5.34,35.64-5.34S463.73,482.91,461.29,482.08Z" transform="translate(-240.05 -139.47)"/><path class="cls-3" d="M667.4,481.38a100.27,100.27,0,0,0,25.69,3.7,101.52,101.52,0,0,0,25.78-3.7,102,102,0,0,1,11.85,3.7s-20.35,5.76-37.63,5.76-39.4-5.35-39.4-5.35S666.67,481.53,667.4,481.38Z" transform="translate(-240.05 -139.47)"/><circle class="cls-4" cx="325.89" cy="140.58" r="140.58"/><path class="cls-4" d="M425.36,583s7.92-174.24,140.58-174.24S706.53,583,706.53,583Z" transform="translate(-240.05 -139.47)"/><path class="cls-5" d="M525.81,414.12a145.21,145.21,0,0,0,82.35,0s18.36,10.14,25.1,14.44c0,0-43.89,7.8-66.28,7.8s-66.38-9.78-66.38-9.78S519.23,416.3,525.81,414.12Z" transform="translate(-240.05 -139.47)"/></svg>