<svg width="251" height="150" viewBox="0 0 251 150" fill="none" xmlns="http://www.w3.org/2000/svg">
    <rect width="251" height="150" fill="white"/>
    <path d="M127.857 95.0893C154.113 95.0893 175.397 73.8028 175.397 47.5446C175.397 21.2865 154.113 0 127.857 0C101.601 0 80.3164 21.2865 80.3164 47.5446C80.3164 73.8028 101.601 95.0893 127.857 95.0893Z" fill="#49AEE9"/>
    <path d="M80.3164 150C80.3164 150 82.9947 91.0714 127.857 91.0714C172.719 91.0714 175.397 150 175.397 150H80.3164Z" fill="#49AEE9"/>
    <path d="M37.4498 106.607C58.1327 106.607 74.8996 89.7878 74.8996 69.0402C74.8996 48.2925 58.1327 31.4732 37.4498 31.4732C16.7668 31.4732 0 48.2925 0 69.0402C0 89.7878 16.7668 106.607 37.4498 106.607Z" fill="#C4C4C4"/>
    <path d="M12.6885 150C12.6885 150 14.0879 103.433 37.4631 103.433C60.8382 103.433 62.2376 150 62.2376 150H12.6885Z" fill="#C4C4C4"/>
    <path d="M68.9535 116.665C84.8475 116.665 97.7322 103.74 97.7322 87.7969C97.7322 71.8534 84.8475 58.9286 68.9535 58.9286C53.0595 58.9286 40.1748 71.8534 40.1748 87.7969C40.1748 103.74 53.0595 116.665 68.9535 116.665Z" fill="#A4A4A4"/>
    <path d="M40.1748 150C40.1748 150 41.7952 114.221 68.9669 114.221C96.1386 114.221 97.7255 150 97.7255 150H40.1748Z" fill="#A4A4A4"/>
    <path d="M213.55 106.607C234.233 106.607 251 89.7878 251 69.0402C251 48.2925 234.233 31.4732 213.55 31.4732C192.867 31.4732 176.101 48.2925 176.101 69.0402C176.101 89.7878 192.867 106.607 213.55 106.607Z" fill="#C4C4C4"/>
    <path d="M176.101 150C176.101 150 178.21 103.433 213.55 103.433C248.891 103.433 251 150 251 150H176.101Z" fill="#C4C4C4"/>
    <path d="M196.643 105.516C201.234 106.39 205.897 106.838 210.57 106.855C215.192 106.842 219.795 106.264 224.277 105.134C226.34 105.9 228.352 106.795 230.303 107.812C230.303 107.812 218.137 111.161 210.57 111.161C203.004 111.161 188.474 108 188.474 108C188.474 108 194.42 106.004 196.643 105.516Z" fill="#A4A4A4"/>
    <path d="M184.791 116.665C200.685 116.665 213.57 103.74 213.57 87.7969C213.57 71.8534 200.685 58.9286 184.791 58.9286C168.897 58.9286 156.013 71.8534 156.013 87.7969C156.013 103.74 168.897 116.665 184.791 116.665Z" fill="#A4A4A4"/>
    <path d="M149.987 150C149.987 150 151.949 114.221 184.805 114.221C217.662 114.221 219.59 150 219.59 150H149.987Z" fill="#A4A4A4"/>
    <path d="M114.285 92.8862C123.373 95.5736 133.044 95.5736 142.133 92.8862C142.133 92.8862 148.34 96.3147 150.623 97.7679C150.623 97.7679 135.778 100.406 128.212 100.406C120.646 100.406 105.761 97.0982 105.761 97.0982C105.761 97.0982 112.062 93.6228 114.285 92.8862Z" fill="#218AE0"/>
    <path d="M45.6858 105.696C42.9856 106.282 40.2252 106.543 37.4633 106.473C34.6925 106.541 31.9234 106.28 29.214 105.696C29.214 105.696 28.0288 106.554 26.7231 107.518C26.7231 107.518 34.7581 108.482 37.4365 108.482C40.1148 108.482 47.8351 107.437 47.8351 107.437C47.1482 106.822 46.4309 106.24 45.6858 105.696Z" fill="#A4A4A4"/>
    <path d="M77.1493 115.473C77.1493 115.473 75.6294 116.518 68.9335 116.518C62.2377 116.518 60.7445 115.473 60.7445 115.473C60.7445 115.473 57.1757 116.638 56.7271 117.248C60.653 118.597 64.7828 119.256 68.9335 119.196C73.1489 119.244 77.3447 118.616 81.361 117.335C81.361 117.335 78.0064 115.761 77.1493 115.473Z" fill="#888888"/>
    <path d="M175.813 115.232C178.731 116.045 181.742 116.478 184.772 116.518C187.812 116.476 190.834 116.044 193.764 115.232C195.166 115.575 196.546 116.005 197.895 116.518C197.895 116.518 190.798 118.527 184.772 118.527C178.745 118.527 171.032 116.658 171.032 116.658C171.032 116.658 175.558 115.279 175.813 115.232Z" fill="#888888"/>
</svg>
