<svg width="16" height="16" viewBox="0 0 16 16" fill="none" xmlns="http://www.w3.org/2000/svg">
<path fill-rule="evenodd" clip-rule="evenodd" d="M16 0H0V16H16V0ZM3.49675 2.78444C3.03835 2.78444 2.66675 3.15605 2.66675 3.61444C2.66675 4.07284 3.03835 4.44444 3.49675 4.44444H12.5034C12.9618 4.44444 13.3334 4.07284 13.3334 3.61444C13.3334 3.15605 12.9618 2.78444 12.5034 2.78444H3.49675ZM2.66675 8.05889C2.66675 7.60049 3.03835 7.22889 3.49675 7.22889H12.5034C12.9618 7.22889 13.3334 7.60049 13.3334 8.05889C13.3334 8.51729 12.9618 8.88889 12.5034 8.88889H3.49675C3.03835 8.88889 2.66675 8.51729 2.66675 8.05889ZM3.49675 11.6733C3.03835 11.6733 2.66675 12.0449 2.66675 12.5033C2.66675 12.9617 3.03835 13.3333 3.49675 13.3333H12.5034C12.9618 13.3333 13.3334 12.9617 13.3334 12.5033C13.3334 12.0449 12.9618 11.6733 12.5034 11.6733H3.49675Z" fill="white"/>
</svg>
