<svg width="190" height="155" viewBox="0 0 190 155" fill="none" xmlns="http://www.w3.org/2000/svg">
    <g clip-path="url(#clip0)">
    <rect width="189.444" height="155" fill="white"/>
    <path d="M161.922 0H50.1646V154.634H161.922V0Z" fill="#A4A4A4"/>
    <path d="M144.881 22.2383H87.3604V77.2794H144.881V22.2383Z" fill="white"/>
    <path d="M68.6836 95.6348H142.121" stroke="white" stroke-width="10" stroke-miterlimit="10" stroke-linecap="round"/>
    <path d="M68.6836 115.724H142.121" stroke="white" stroke-width="10" stroke-miterlimit="10" stroke-linecap="round"/>
    <path d="M106.043 47.5275H94.1226V70.5852H106.043V47.5275Z" fill="#A4A4A4"/>
    <path d="M122.807 40.0895H110.886V70.5852H122.807V40.0895Z" fill="#A4A4A4"/>
    <path d="M139.57 33.3953H127.649V70.5852H139.57V33.3953Z" fill="#A4A4A4"/>
    <path d="M68.6836 135.812H142.121" stroke="white" stroke-width="10" stroke-miterlimit="10" stroke-linecap="round"/>
    <path opacity="0.5" d="M136.357 114.627C153.517 114.627 167.428 100.739 167.428 83.608C167.428 66.4767 153.517 52.5891 136.357 52.5891C119.197 52.5891 105.286 66.4767 105.286 83.608C105.286 100.739 119.197 114.627 136.357 114.627Z" fill="white"/>
    <path d="M158.601 110.82L181.287 140.044" stroke="#FF931E" stroke-width="15" stroke-miterlimit="10" stroke-linecap="round"/>
    <path d="M135.896 116.209C153.855 116.209 168.413 101.675 168.413 83.7466C168.413 65.8181 153.855 51.2842 135.896 51.2842C117.937 51.2842 103.379 65.8181 103.379 83.7466C103.379 101.675 117.937 116.209 135.896 116.209Z" stroke="#FF931E" stroke-width="10" stroke-miterlimit="10"/>
    <path d="M46.0731 101.875C71.5185 101.875 92.1461 81.2821 92.1461 55.8794C92.1461 30.4767 71.5185 9.88367 46.0731 9.88367C20.6276 9.88367 0 30.4767 0 55.8794C0 81.2821 20.6276 101.875 46.0731 101.875Z" fill="#99D85D"/>
    <path d="M0 155C0 155 2.59504 97.986 46.092 97.986C89.589 97.986 92.184 155 92.184 155H0Z" fill="#99D85D"/>
    <path d="M32.9462 99.9778C41.5161 102.508 50.6361 102.508 59.206 99.9778C59.206 99.9778 65.1348 102.379 67.2879 103.76C67.2879 103.76 53.2141 107.069 46.0793 107.069C38.9445 107.069 25.2432 103.533 25.2432 103.533C25.2432 103.533 30.8499 100.671 32.9462 99.9778Z" fill="#80CE34"/>
    </g>
    <defs>
    <clipPath id="clip0">
    <rect width="189.444" height="155" fill="white"/>
    </clipPath>
    </defs>
</svg>
