<svg width="118" height="179" viewBox="0 0 118 179" fill="none" xmlns="http://www.w3.org/2000/svg">
    <rect width="118" height="179" fill="white"/>
    <path d="M57.2976 123.19C84.042 123.19 105.723 101.556 105.723 74.8687C105.723 48.1817 84.042 26.5477 57.2976 26.5477C30.5532 26.5477 8.87256 48.1817 8.87256 74.8687C8.87256 101.556 30.5532 123.19 57.2976 123.19Z" fill="#99D85D"/>
    <path d="M8.86621 179C8.86621 179 11.5937 119.104 57.3112 119.104C103.029 119.104 105.756 179 105.756 179H8.86621Z" fill="#99D85D"/>
    <path d="M91.2423 40.4076L57.6096 56.8302L23.3198 40.4076C23.3198 40.4076 42.6049 22.7996 42.6049 16.6743H72.6142C72.6142 16.6743 71.6453 23.985 91.2423 40.4076Z" fill="#888888"/>
    <path d="M59.0033 0L118 14.1778L59.0033 42.5399L0 14.1778L59.0033 0Z" fill="#A4A4A4"/>
    <path d="M59.0035 16.6743L101.542 22.0911C101.542 22.0911 99.246 31.6467 100.606 38.4541H98.4032C98.4032 38.4541 98.2174 29.9713 99.3323 23.6605L57.6099 18.0318L59.0035 16.6743Z" fill="#FF931E"/>
    <path d="M99.584 39.4739C100.713 39.4739 101.628 38.5607 101.628 37.4343C101.628 36.3079 100.713 35.3947 99.584 35.3947C98.4552 35.3947 97.54 36.3079 97.54 37.4343C97.54 38.5607 98.4552 39.4739 99.584 39.4739Z" fill="#FF931E"/>
    <path d="M100.606 38.4541C100.606 38.4541 100.606 39.8116 102.65 45.937C102.65 45.937 98.5622 47.3011 97.8786 47.3011C97.8786 47.3011 97.653 39.8116 98.4494 38.4541C99.2457 37.0966 100.606 38.4541 100.606 38.4541Z" fill="#FF931E"/>
    <path d="M43.4942 121.196C52.5016 123.854 62.0872 123.854 71.0946 121.196C71.0946 121.196 77.3261 123.719 79.5891 125.17C79.5891 125.17 64.7967 128.646 57.2977 128.646C49.7987 128.646 35.3979 124.931 35.3979 124.931C35.3979 124.931 41.291 121.925 43.4942 121.196Z" fill="#80CE34"/>
</svg>
