<svg id="Layer_9" data-name="Layer 9" xmlns="http://www.w3.org/2000/svg" viewBox="0 0 300.04 245.9"><defs><style>.cls-1{fill:#a4a4a4;}.cls-2,.cls-4{fill:#fff;}.cls-3,.cls-5,.cls-6{fill:none;stroke-miterlimit:10;}.cls-3{stroke:#fff;}.cls-3,.cls-5{stroke-linecap:round;}.cls-3,.cls-6{stroke-width:10px;}.cls-4{opacity:0.5;}.cls-5,.cls-6{stroke:#ff931e;}.cls-5{stroke-width:15px;}.cls-7{fill:#99d85d;}.cls-8{fill:#80ce34;}</style></defs><title>Research New </title><rect class="cls-1" x="79.45" width="177" height="245.32"/><rect class="cls-2" x="138.36" y="35.28" width="91.1" height="87.32"/><line class="cls-3" x1="108.78" y1="151.72" x2="225.09" y2="151.72"/><line class="cls-3" x1="108.78" y1="183.59" x2="225.09" y2="183.59"/><rect class="cls-1" x="149.07" y="75.4" width="18.88" height="36.58"/><rect class="cls-1" x="175.62" y="63.6" width="18.88" height="48.38"/><rect class="cls-1" x="202.17" y="52.98" width="18.88" height="59"/><line class="cls-3" x1="108.78" y1="215.46" x2="225.09" y2="215.46"/><circle class="cls-4" cx="215.96" cy="132.64" r="49.21"/><line class="cls-5" x1="251.19" y1="175.81" x2="292.54" y2="222.87"/><circle class="cls-6" cx="215.23" cy="132.86" r="51.5"/><circle class="cls-7" cx="72.97" cy="88.65" r="72.97"/><path class="cls-7" d="M909.55,727s4.11-90.45,73-90.45,73,90.45,73,90.45Z" transform="translate(-909.55 -481.1)"/><path class="cls-8" d="M961.73,639.71a73.34,73.34,0,0,0,41.59,0s9.39,3.81,12.8,6c0,0-22.29,5.25-33.59,5.25s-33-5.61-33-5.61S958.41,640.81,961.73,639.71Z" transform="translate(-909.55 -481.1)"/></svg>