<svg width="271" height="44" viewBox="0 0 271 44" fill="none" xmlns="http://www.w3.org/2000/svg">
<rect x="1" y="1" width="269" height="42" rx="4" fill="white" stroke="#FF7F00" stroke-width="2"/>
<path d="M55.31 18.17C55.23 18.31 55.1433 18.4133 55.05 18.48C54.9633 18.54 54.8533 18.57 54.72 18.57C54.58 18.57 54.4267 18.52 54.26 18.42C54.1 18.3133 53.9067 18.1967 53.68 18.07C53.4533 17.9433 53.1867 17.83 52.88 17.73C52.58 17.6233 52.2233 17.57 51.81 17.57C51.4367 17.57 51.11 17.6167 50.83 17.71C50.55 17.7967 50.3133 17.92 50.12 18.08C49.9333 18.24 49.7933 18.4333 49.7 18.66C49.6067 18.88 49.56 19.1233 49.56 19.39C49.56 19.73 49.6533 20.0133 49.84 20.24C50.0333 20.4667 50.2867 20.66 50.6 20.82C50.9133 20.98 51.27 21.1233 51.67 21.25C52.07 21.3767 52.48 21.5133 52.9 21.66C53.32 21.8 53.73 21.9667 54.13 22.16C54.53 22.3467 54.8867 22.5867 55.2 22.88C55.5133 23.1667 55.7633 23.52 55.95 23.94C56.1433 24.36 56.24 24.87 56.24 25.47C56.24 26.1233 56.1267 26.7367 55.9 27.31C55.68 27.8767 55.3533 28.3733 54.92 28.8C54.4933 29.22 53.97 29.5533 53.35 29.8C52.73 30.04 52.02 30.16 51.22 30.16C50.76 30.16 50.3067 30.1133 49.86 30.02C49.4133 29.9333 48.9833 29.8067 48.57 29.64C48.1633 29.4733 47.78 29.2733 47.42 29.04C47.06 28.8067 46.74 28.5467 46.46 28.26L47.25 26.97C47.3167 26.8767 47.4033 26.8 47.51 26.74C47.6167 26.6733 47.73 26.64 47.85 26.64C48.0167 26.64 48.1967 26.71 48.39 26.85C48.5833 26.9833 48.8133 27.1333 49.08 27.3C49.3467 27.4667 49.6567 27.62 50.01 27.76C50.37 27.8933 50.8 27.96 51.3 27.96C52.0667 27.96 52.66 27.78 53.08 27.42C53.5 27.0533 53.71 26.53 53.71 25.85C53.71 25.47 53.6133 25.16 53.42 24.92C53.2333 24.68 52.9833 24.48 52.67 24.32C52.3567 24.1533 52 24.0133 51.6 23.9C51.2 23.7867 50.7933 23.6633 50.38 23.53C49.9667 23.3967 49.56 23.2367 49.16 23.05C48.76 22.8633 48.4033 22.62 48.09 22.32C47.7767 22.02 47.5233 21.6467 47.33 21.2C47.1433 20.7467 47.05 20.19 47.05 19.53C47.05 19.0033 47.1533 18.49 47.36 17.99C47.5733 17.49 47.88 17.0467 48.28 16.66C48.68 16.2733 49.1733 15.9633 49.76 15.73C50.3467 15.4967 51.02 15.38 51.78 15.38C52.6333 15.38 53.42 15.5133 54.14 15.78C54.86 16.0467 55.4733 16.42 55.98 16.9L55.31 18.17ZM72.7766 15.54V30H70.0766V23.68H63.2866V30H60.5866V15.54H63.2866V21.76H70.0766V15.54H72.7766ZM91.7867 22.77C91.7867 23.83 91.6101 24.8133 91.2567 25.72C90.9101 26.62 90.4167 27.4 89.7767 28.06C89.1367 28.72 88.3667 29.2367 87.4667 29.61C86.5667 29.9767 85.5667 30.16 84.4667 30.16C83.3734 30.16 82.3767 29.9767 81.4767 29.61C80.5767 29.2367 79.8034 28.72 79.1567 28.06C78.5167 27.4 78.0201 26.62 77.6667 25.72C77.3134 24.8133 77.1367 23.83 77.1367 22.77C77.1367 21.71 77.3134 20.73 77.6667 19.83C78.0201 18.9233 78.5167 18.14 79.1567 17.48C79.8034 16.82 80.5767 16.3067 81.4767 15.94C82.3767 15.5667 83.3734 15.38 84.4667 15.38C85.2001 15.38 85.8901 15.4667 86.5367 15.64C87.1834 15.8067 87.7767 16.0467 88.3167 16.36C88.8567 16.6667 89.3401 17.0433 89.7667 17.49C90.2001 17.93 90.5667 18.4233 90.8667 18.97C91.1667 19.5167 91.3934 20.11 91.5467 20.75C91.7067 21.39 91.7867 22.0633 91.7867 22.77ZM89.0367 22.77C89.0367 21.9767 88.9301 21.2667 88.7167 20.64C88.5034 20.0067 88.2001 19.47 87.8067 19.03C87.4134 18.59 86.9334 18.2533 86.3667 18.02C85.8067 17.7867 85.1734 17.67 84.4667 17.67C83.7601 17.67 83.1234 17.7867 82.5567 18.02C81.9967 18.2533 81.5167 18.59 81.1167 19.03C80.7234 19.47 80.4201 20.0067 80.2067 20.64C79.9934 21.2667 79.8867 21.9767 79.8867 22.77C79.8867 23.5633 79.9934 24.2767 80.2067 24.91C80.4201 25.5367 80.7234 26.07 81.1167 26.51C81.5167 26.9433 81.9967 27.2767 82.5567 27.51C83.1234 27.7433 83.7601 27.86 84.4667 27.86C85.1734 27.86 85.8067 27.7433 86.3667 27.51C86.9334 27.2767 87.4134 26.9433 87.8067 26.51C88.2001 26.07 88.5034 25.5367 88.7167 24.91C88.9301 24.2767 89.0367 23.5633 89.0367 22.77ZM115.096 15.54L110.606 30H108.176L105.016 20.12C104.929 19.88 104.849 19.5867 104.776 19.24C104.736 19.4067 104.696 19.5633 104.656 19.71C104.616 19.8567 104.573 19.9933 104.526 20.12L101.336 30H98.8961L94.4161 15.54H96.6661C96.8994 15.54 97.0928 15.5967 97.2461 15.71C97.4061 15.8167 97.5128 15.9633 97.5661 16.15L100.026 24.8C100.079 25.0133 100.129 25.2467 100.176 25.5C100.229 25.7467 100.283 26.0067 100.336 26.28C100.389 26 100.446 25.7367 100.506 25.49C100.573 25.2433 100.643 25.0133 100.716 24.8L103.556 16.15C103.609 15.9967 103.713 15.8567 103.866 15.73C104.026 15.6033 104.219 15.54 104.446 15.54H105.236C105.469 15.54 105.659 15.5967 105.806 15.71C105.953 15.8233 106.063 15.97 106.136 16.15L108.966 24.8C109.106 25.2133 109.233 25.69 109.346 26.23C109.433 25.7033 109.529 25.2267 109.636 24.8L112.096 16.15C112.136 15.9833 112.236 15.84 112.396 15.72C112.563 15.6 112.759 15.54 112.986 15.54H115.096ZM139.388 22.77C139.388 23.83 139.212 24.8133 138.858 25.72C138.512 26.62 138.018 27.4 137.378 28.06C136.738 28.72 135.968 29.2367 135.068 29.61C134.168 29.9767 133.168 30.16 132.068 30.16C130.975 30.16 129.978 29.9767 129.078 29.61C128.178 29.2367 127.405 28.72 126.758 28.06C126.118 27.4 125.622 26.62 125.268 25.72C124.915 24.8133 124.738 23.83 124.738 22.77C124.738 21.71 124.915 20.73 125.268 19.83C125.622 18.9233 126.118 18.14 126.758 17.48C127.405 16.82 128.178 16.3067 129.078 15.94C129.978 15.5667 130.975 15.38 132.068 15.38C132.802 15.38 133.492 15.4667 134.138 15.64C134.785 15.8067 135.378 16.0467 135.918 16.36C136.458 16.6667 136.942 17.0433 137.368 17.49C137.802 17.93 138.168 18.4233 138.468 18.97C138.768 19.5167 138.995 20.11 139.148 20.75C139.308 21.39 139.388 22.0633 139.388 22.77ZM136.638 22.77C136.638 21.9767 136.532 21.2667 136.318 20.64C136.105 20.0067 135.802 19.47 135.408 19.03C135.015 18.59 134.535 18.2533 133.968 18.02C133.408 17.7867 132.775 17.67 132.068 17.67C131.362 17.67 130.725 17.7867 130.158 18.02C129.598 18.2533 129.118 18.59 128.718 19.03C128.325 19.47 128.022 20.0067 127.808 20.64C127.595 21.2667 127.488 21.9767 127.488 22.77C127.488 23.5633 127.595 24.2767 127.808 24.91C128.022 25.5367 128.325 26.07 128.718 26.51C129.118 26.9433 129.598 27.2767 130.158 27.51C130.725 27.7433 131.362 27.86 132.068 27.86C132.775 27.86 133.408 27.7433 133.968 27.51C134.535 27.2767 135.015 26.9433 135.408 26.51C135.802 26.07 136.105 25.5367 136.318 24.91C136.532 24.2767 136.638 23.5633 136.638 22.77ZM155.941 15.54V30H154.561C154.347 30 154.167 29.9667 154.021 29.9C153.881 29.8267 153.744 29.7067 153.611 29.54L146.061 19.9C146.101 20.34 146.121 20.7467 146.121 21.12V30H143.751V15.54H145.161C145.274 15.54 145.371 15.5467 145.451 15.56C145.537 15.5667 145.611 15.5867 145.671 15.62C145.737 15.6467 145.801 15.69 145.861 15.75C145.921 15.8033 145.987 15.8767 146.061 15.97L153.641 25.65C153.621 25.4167 153.604 25.1867 153.591 24.96C153.577 24.7333 153.571 24.5233 153.571 24.33V15.54H155.941ZM172.724 22.81C173.217 22.81 173.647 22.75 174.014 22.63C174.381 22.5033 174.684 22.3267 174.924 22.1C175.171 21.8667 175.354 21.5867 175.474 21.26C175.594 20.9267 175.654 20.5567 175.654 20.15C175.654 19.7633 175.594 19.4133 175.474 19.1C175.354 18.7867 175.174 18.52 174.934 18.3C174.694 18.08 174.391 17.9133 174.024 17.8C173.657 17.68 173.224 17.62 172.724 17.62H170.714V22.81H172.724ZM172.724 15.54C173.691 15.54 174.527 15.6533 175.234 15.88C175.941 16.1067 176.524 16.4233 176.984 16.83C177.444 17.2367 177.784 17.7233 178.004 18.29C178.231 18.8567 178.344 19.4767 178.344 20.15C178.344 20.85 178.227 21.4933 177.994 22.08C177.761 22.66 177.411 23.16 176.944 23.58C176.477 24 175.891 24.3267 175.184 24.56C174.484 24.7933 173.664 24.91 172.724 24.91H170.714V30H168.024V15.54H172.724ZM186.777 22.42C187.284 22.42 187.724 22.3567 188.097 22.23C188.477 22.1033 188.787 21.93 189.027 21.71C189.274 21.4833 189.457 21.2167 189.577 20.91C189.697 20.6033 189.757 20.2667 189.757 19.9C189.757 19.1667 189.514 18.6033 189.027 18.21C188.547 17.8167 187.81 17.62 186.817 17.62H185.097V22.42H186.777ZM193.697 30H191.267C190.807 30 190.474 29.82 190.267 29.46L187.227 24.83C187.114 24.6567 186.987 24.5333 186.847 24.46C186.714 24.3867 186.514 24.35 186.247 24.35H185.097V30H182.407V15.54H186.817C187.797 15.54 188.637 15.6433 189.337 15.85C190.044 16.05 190.62 16.3333 191.067 16.7C191.52 17.0667 191.854 17.5067 192.067 18.02C192.28 18.5267 192.387 19.0867 192.387 19.7C192.387 20.1867 192.314 20.6467 192.167 21.08C192.027 21.5133 191.82 21.9067 191.547 22.26C191.28 22.6133 190.947 22.9233 190.547 23.19C190.154 23.4567 189.704 23.6667 189.197 23.82C189.37 23.92 189.53 24.04 189.677 24.18C189.824 24.3133 189.957 24.4733 190.077 24.66L193.697 30ZM210.853 22.77C210.853 23.83 210.676 24.8133 210.323 25.72C209.976 26.62 209.483 27.4 208.843 28.06C208.203 28.72 207.433 29.2367 206.533 29.61C205.633 29.9767 204.633 30.16 203.533 30.16C202.44 30.16 201.443 29.9767 200.543 29.61C199.643 29.2367 198.87 28.72 198.223 28.06C197.583 27.4 197.086 26.62 196.733 25.72C196.38 24.8133 196.203 23.83 196.203 22.77C196.203 21.71 196.38 20.73 196.733 19.83C197.086 18.9233 197.583 18.14 198.223 17.48C198.87 16.82 199.643 16.3067 200.543 15.94C201.443 15.5667 202.44 15.38 203.533 15.38C204.266 15.38 204.956 15.4667 205.603 15.64C206.25 15.8067 206.843 16.0467 207.383 16.36C207.923 16.6667 208.406 17.0433 208.833 17.49C209.266 17.93 209.633 18.4233 209.933 18.97C210.233 19.5167 210.46 20.11 210.613 20.75C210.773 21.39 210.853 22.0633 210.853 22.77ZM208.103 22.77C208.103 21.9767 207.996 21.2667 207.783 20.64C207.57 20.0067 207.266 19.47 206.873 19.03C206.48 18.59 206 18.2533 205.433 18.02C204.873 17.7867 204.24 17.67 203.533 17.67C202.826 17.67 202.19 17.7867 201.623 18.02C201.063 18.2533 200.583 18.59 200.183 19.03C199.79 19.47 199.486 20.0067 199.273 20.64C199.06 21.2667 198.953 21.9767 198.953 22.77C198.953 23.5633 199.06 24.2767 199.273 24.91C199.486 25.5367 199.79 26.07 200.183 26.51C200.583 26.9433 201.063 27.2767 201.623 27.51C202.19 27.7433 202.826 27.86 203.533 27.86C204.24 27.86 204.873 27.7433 205.433 27.51C206 27.2767 206.48 26.9433 206.873 26.51C207.266 26.07 207.57 25.5367 207.783 24.91C207.996 24.2767 208.103 23.5633 208.103 22.77ZM217.915 17.68V21.96H223.335V24.11H217.915V30H215.215V15.54H224.335V17.68H217.915ZM231.244 30H228.544V15.54H231.244V30ZM244.951 27.78V30H236.481V15.54H239.171V27.78H244.951ZM251.572 17.68V21.69H256.632V23.76H251.572V27.85H257.992V30H248.872V15.54H257.992V17.68H251.572Z" fill="#FF7F00"/>
<g clip-path="url(#clip0)">
<path d="M24 31.5C17.2 31.5 12.5 25.5 11 22.5C12.1667 19.6667 16.4 14 24 14C31.6 14 36.1667 19.6667 37.5 22.5C35.8333 25.5 30.8 31.5 24 31.5Z" stroke="#FF7F00" stroke-width="2.5"/>
<path fill-rule="evenodd" clip-rule="evenodd" d="M24 28C27.0376 28 29.5 25.5376 29.5 22.5C29.5 19.4624 27.0376 17 24 17C20.9624 17 18.5 19.4624 18.5 22.5C18.5 25.5376 20.9624 28 24 28ZM25.5 23C26.3284 23 27 22.3284 27 21.5C27 20.6716 26.3284 20 25.5 20C24.6716 20 24 20.6716 24 21.5C24 22.3284 24.6716 23 25.5 23Z" fill="#FF7F00"/>
</g>
<defs>
<clipPath id="clip0">
<rect width="28.5075" height="25.34" fill="white" transform="translate(10 10)"/>
</clipPath>
</defs>
</svg>
